<svg xmlns="http://www.w3.org/2000/svg" xmlns:xlink="http://www.w3.org/1999/xlink" width="1692" zoomAndPan="magnify" viewBox="0 0 1269 359.999987" height="480" preserveAspectRatio="xMidYMid meet" version="1.0"><defs><g/><clipPath id="4c666a3e04"><path d="M 0 61.332031 L 94 61.332031 L 94 260.832031 L 0 260.832031 Z M 0 61.332031 " clip-rule="nonzero"/></clipPath><clipPath id="0f1ed50359"><path d="M 108 61.332031 L 200.25 61.332031 L 200.25 260.832031 L 108 260.832031 Z M 108 61.332031 " clip-rule="nonzero"/></clipPath><clipPath id="9b013998f7"><path d="M 107 63.203125 L 199.082031 63.203125 L 199.082031 262.703125 L 107 262.703125 Z M 107 63.203125 " clip-rule="nonzero"/></clipPath></defs><g fill="#ffffff" fill-opacity="1"><g transform="translate(229.2113, 230.651432)"><g><path d="M 149.515625 -85.703125 L 149.515625 -52.5 C 145.554688 -34.320312 136.898438 -20.5625 123.546875 -11.21875 C 110.191406 -1.882812 95.289062 2.78125 78.84375 2.78125 C 58.1875 2.78125 40.59375 -4.945312 26.0625 -20.40625 C 11.53125 -35.863281 4.265625 -54.535156 4.265625 -76.421875 C 4.265625 -98.679688 11.375 -117.476562 25.59375 -132.8125 C 39.820312 -148.144531 57.570312 -155.8125 78.84375 -155.8125 C 103.695312 -155.8125 123.359375 -147.097656 137.828125 -129.671875 L 115.015625 -104.625 C 106.847656 -117.726562 95.46875 -124.28125 80.875 -124.28125 C 70.113281 -124.28125 60.929688 -119.613281 53.328125 -110.28125 C 45.722656 -100.945312 41.921875 -89.660156 41.921875 -76.421875 C 41.921875 -63.441406 45.722656 -52.34375 53.328125 -43.125 C 60.929688 -33.914062 70.113281 -29.3125 80.875 -29.3125 C 89.78125 -29.3125 97.539062 -32 104.15625 -37.375 C 110.769531 -42.757812 114.078125 -49.898438 114.078125 -58.796875 L 78.84375 -58.796875 L 78.84375 -85.703125 Z M 149.515625 -85.703125 "/></g></g></g><g fill="#ffffff" fill-opacity="1"><g transform="translate(382.987493, 230.651432)"><g><path d="M 20.125 -11.3125 C 9.550781 -20.707031 4.265625 -32.765625 4.265625 -47.484375 C 4.265625 -62.203125 9.765625 -74.289062 20.765625 -83.75 C 31.773438 -93.207031 45.382812 -97.9375 61.59375 -97.9375 C 77.539062 -97.9375 90.984375 -93.175781 101.921875 -83.65625 C 112.867188 -74.132812 118.34375 -62.078125 118.34375 -47.484375 C 118.34375 -32.890625 112.992188 -20.863281 102.296875 -11.40625 C 91.597656 -1.945312 78.03125 2.78125 61.59375 2.78125 C 44.519531 2.78125 30.695312 -1.914062 20.125 -11.3125 Z M 45.53125 -63.625 C 41.269531 -59.414062 39.140625 -54.035156 39.140625 -47.484375 C 39.140625 -40.929688 41.179688 -35.582031 45.265625 -31.4375 C 49.347656 -27.300781 54.726562 -25.234375 61.40625 -25.234375 C 67.832031 -25.234375 73.113281 -27.332031 77.25 -31.53125 C 81.394531 -35.738281 83.46875 -41.054688 83.46875 -47.484375 C 83.46875 -54.035156 81.332031 -59.414062 77.0625 -63.625 C 72.800781 -67.832031 67.582031 -69.9375 61.40625 -69.9375 C 55.09375 -69.9375 49.800781 -67.832031 45.53125 -63.625 Z M 45.53125 -63.625 "/></g></g></g><g fill="#8275db" fill-opacity="1"><g transform="translate(505.609716, 230.651432)"><g><path d="M 128.546875 0 L 104.0625 -85.890625 L 79.578125 0 L 40.8125 0 L -2.78125 -153.03125 L 35.984375 -153.03125 L 62.140625 -48.046875 L 63.0625 -48.046875 L 90.890625 -153.03125 L 117.234375 -153.03125 L 145.0625 -48.046875 L 145.984375 -48.046875 L 172.140625 -153.03125 L 210.734375 -153.03125 L 167.140625 0 Z M 128.546875 0 "/></g></g></g><g fill="#ffffff" fill-opacity="1"><g transform="translate(713.558922, 230.651432)"><g><path d="M 107.40625 -43.03125 L 38.40625 -43.03125 C 38.40625 -36.351562 40.566406 -31.40625 44.890625 -28.1875 C 49.222656 -24.976562 53.921875 -23.375 58.984375 -23.375 C 64.304688 -23.375 68.507812 -24.082031 71.59375 -25.5 C 74.6875 -26.925781 78.210938 -29.742188 82.171875 -33.953125 L 105.921875 -22.078125 C 96.023438 -5.503906 79.578125 2.78125 56.578125 2.78125 C 42.234375 2.78125 29.925781 -2.132812 19.65625 -11.96875 C 9.394531 -21.800781 4.265625 -33.640625 4.265625 -47.484375 C 4.265625 -61.335938 9.394531 -73.207031 19.65625 -83.09375 C 29.925781 -92.988281 42.234375 -97.9375 56.578125 -97.9375 C 71.660156 -97.9375 83.929688 -93.578125 93.390625 -84.859375 C 102.859375 -76.140625 107.59375 -63.679688 107.59375 -47.484375 C 107.59375 -45.265625 107.53125 -43.78125 107.40625 -43.03125 Z M 39.328125 -61.21875 L 75.5 -61.21875 C 74.757812 -66.164062 72.8125 -69.96875 69.65625 -72.625 C 66.5 -75.28125 62.445312 -76.609375 57.5 -76.609375 C 52.0625 -76.609375 47.734375 -75.1875 44.515625 -72.34375 C 41.304688 -69.5 39.578125 -65.789062 39.328125 -61.21875 Z M 39.328125 -61.21875 "/></g></g></g><g fill="#ffffff" fill-opacity="1"><g transform="translate(825.41302, 230.651432)"><g><path d="M 109.078125 -83.28125 C 117.984375 -73.519531 122.4375 -61.585938 122.4375 -47.484375 C 122.4375 -33.390625 117.984375 -21.488281 109.078125 -11.78125 C 100.171875 -2.070312 88.851562 2.78125 75.125 2.78125 C 62.507812 2.78125 52.125 -1.734375 43.96875 -10.765625 L 43.59375 -10.765625 L 43.59375 0 L 11.125 0 L 11.125 -159.53125 L 43.96875 -159.53125 L 43.96875 -86.078125 C 52.125 -93.984375 62.507812 -97.9375 75.125 -97.9375 C 88.851562 -97.9375 100.171875 -93.050781 109.078125 -83.28125 Z M 81.4375 -31.4375 C 85.519531 -35.582031 87.5625 -40.929688 87.5625 -47.484375 C 87.5625 -54.035156 85.425781 -59.414062 81.15625 -63.625 C 76.882812 -67.832031 71.597656 -69.9375 65.296875 -69.9375 C 59.109375 -69.9375 53.878906 -67.832031 49.609375 -63.625 C 45.347656 -59.414062 43.21875 -54.035156 43.21875 -47.484375 C 43.21875 -41.054688 45.289062 -35.738281 49.4375 -31.53125 C 53.582031 -27.332031 58.867188 -25.234375 65.296875 -25.234375 C 71.972656 -25.234375 77.351562 -27.300781 81.4375 -31.4375 Z M 81.4375 -31.4375 "/></g></g></g><g fill="#ffffff" fill-opacity="1"><g transform="translate(952.106782, 230.651432)"><g><path d="M 14.28125 -148.21875 C 18.113281 -152.050781 22.6875 -153.96875 28 -153.96875 C 33.320312 -153.96875 37.898438 -152.050781 41.734375 -148.21875 C 45.566406 -144.382812 47.484375 -139.804688 47.484375 -134.484375 C 47.484375 -129.171875 45.566406 -124.597656 41.734375 -120.765625 C 37.898438 -116.929688 33.320312 -115.015625 28 -115.015625 C 22.6875 -115.015625 18.113281 -116.929688 14.28125 -120.765625 C 10.445312 -124.597656 8.53125 -129.171875 8.53125 -134.484375 C 8.53125 -139.804688 10.445312 -144.382812 14.28125 -148.21875 Z M 11.125 -95.15625 L 11.125 0 L 43.96875 0 L 43.96875 -95.15625 Z M 11.125 -95.15625 "/></g></g></g><g fill="#ffffff" fill-opacity="1"><g transform="translate(1008.126591, 230.651432)"><g><path d="M 16.6875 -95.15625 L 16.6875 -115.375 C 16.8125 -129.601562 20.148438 -140.984375 26.703125 -149.515625 C 33.265625 -158.046875 42.359375 -162.3125 53.984375 -162.3125 C 58.929688 -162.3125 63.660156 -161.597656 68.171875 -160.171875 C 72.679688 -158.753906 75.925781 -157.300781 77.90625 -155.8125 L 81.0625 -153.78125 L 69.5625 -130.59375 C 66.59375 -132.320312 63.316406 -133.1875 59.734375 -133.1875 C 55.648438 -133.1875 52.925781 -131.796875 51.5625 -129.015625 C 50.207031 -126.234375 49.53125 -121.378906 49.53125 -114.453125 L 49.53125 -95.15625 L 71.421875 -95.15625 L 71.421875 -70.125 L 49.53125 -70.125 L 49.53125 0 L 16.6875 0 L 16.6875 -70.125 L 2.96875 -70.125 L 2.96875 -95.15625 Z M 16.6875 -95.15625 "/></g></g></g><g fill="#ffffff" fill-opacity="1"><g transform="translate(1077.687598, 230.651432)"><g><path d="M 83.296875 -95.15625 L 121.125 -95.15625 L 46.375 48.234375 L 8.53125 48.234375 L 41.359375 -14.84375 L -3.703125 -95.15625 L 34.125 -95.15625 L 60.65625 -46.375 Z M 83.296875 -95.15625 "/></g></g></g><g clip-path="url(#4c666a3e04)"><path fill="#8275db" d="M 0.0195312 161.148438 C 0.0195312 205.6875 29.121094 243.433594 69.351562 256.398438 C 76.929688 258.84375 84.898438 260.40625 93.144531 260.96875 L 93.144531 149.25 L 46.582031 149.25 L 46.582031 173.042969 L 69.351562 173.042969 L 69.351562 229.691406 C 46.664062 219.507812 29.949219 198.390625 25.917969 173.042969 C 25.300781 169.171875 24.980469 165.195312 24.980469 161.148438 C 24.980469 157.097656 25.300781 153.125 25.917969 149.25 C 29.949219 123.90625 46.664062 102.789062 69.351562 92.601562 L 69.351562 125.457031 L 93.144531 125.457031 L 93.144531 61.324219 C 84.898438 61.890625 76.929688 63.453125 69.351562 65.894531 C 29.121094 78.863281 0.0195312 116.605469 0.0195312 161.148438 Z M 0.0195312 161.148438 " fill-opacity="1" fill-rule="nonzero"/></g><g clip-path="url(#0f1ed50359)"><path fill="#8275db" d="M 184.476562 107.382812 L 164.019531 121.742188 C 166.984375 126.546875 169.425781 131.707031 171.261719 137.144531 C 172 139.34375 172.644531 141.585938 173.179688 143.871094 C 174.488281 149.417969 175.175781 155.203125 175.175781 161.148438 C 175.175781 167.691406 174.339844 174.035156 172.769531 180.085938 L 166.480469 164.140625 L 166.480469 164.136719 L 152.832031 129.523438 L 141.183594 164.851562 L 132.113281 192.296875 L 132.113281 66.328125 C 124.546875 63.773438 116.574219 62.097656 108.320312 61.425781 L 108.320312 260.875 C 108.707031 260.84375 109.09375 260.808594 109.480469 260.773438 C 117.324219 260.042969 124.902344 258.40625 132.113281 255.972656 C 133.652344 255.449219 135.175781 254.894531 136.679688 254.300781 L 148.492188 218.5625 L 154.816406 199.421875 L 158.386719 208.476562 L 158.386719 208.480469 L 168.511719 234.144531 C 175.167969 227.90625 180.964844 220.769531 185.71875 212.921875 C 194.871094 197.820312 200.136719 180.097656 200.136719 161.148438 C 200.136719 141.359375 194.390625 122.910156 184.476562 107.382812 Z M 184.476562 107.382812 " fill-opacity="1" fill-rule="nonzero"/></g><g clip-path="url(#9b013998f7)"><path fill="#ffffff" d="M 183.710938 109.253906 L 163.253906 123.613281 C 166.222656 128.417969 168.664062 133.578125 170.496094 139.019531 C 171.238281 141.214844 171.878906 143.457031 172.414062 145.742188 C 173.722656 151.289062 174.414062 157.074219 174.414062 163.019531 C 174.414062 169.5625 173.578125 175.90625 172.003906 181.957031 L 165.714844 166.011719 L 165.714844 166.007812 L 152.066406 131.394531 L 140.421875 166.722656 L 140.421875 166.726562 L 131.347656 194.167969 L 131.347656 68.203125 C 123.785156 65.644531 115.8125 63.96875 107.554688 63.296875 L 107.554688 262.746094 C 107.945312 262.714844 108.332031 262.679688 108.71875 262.644531 C 116.558594 261.914062 124.140625 260.277344 131.347656 257.84375 C 132.890625 257.324219 134.410156 256.765625 135.914062 256.175781 L 147.726562 220.433594 L 154.054688 201.296875 L 157.625 210.347656 L 157.625 210.351562 L 167.75 236.019531 C 174.402344 229.78125 180.203125 222.640625 184.953125 214.796875 C 194.105469 199.691406 199.371094 181.96875 199.371094 163.019531 C 199.371094 143.230469 193.628906 124.78125 183.710938 109.253906 Z M 183.710938 109.253906 " fill-opacity="1" fill-rule="nonzero"/></g></svg>